<svg xmlns="http://www.w3.org/2000/svg" xmlns:xlink="http://www.w3.org/1999/xlink" xmlns:lucid="lucid" width="1590" height="860"><g transform="translate(-100 -380)" lucid:page-tab-id="0_0"><path d="M540 876c0-3.3 2.7-6 6-6h148c3.3 0 6 2.7 6 6v28c0 3.3-2.7 6-6 6H546c-3.3 0-6-2.7-6-6z" stroke="#5e5e5e" stroke-width="3" fill="#ffdf71"/><use xlink:href="#a" transform="matrix(1,0,0,1,552,882) translate(31.31111111111111 17.777777777777775)"/><use xlink:href="#b" transform="matrix(1,0,0,1,552,882) translate(68 41.64444444444444)"/><path d="M280 546c0-3.3 2.7-6 6-6h148c3.3 0 6 2.7 6 6v98c0 3.3-2.7 6-6 6H286c-3.3 0-6-2.7-6-6z" stroke="#5e5e5e" stroke-width="3" fill-opacity="0"/><use xlink:href="#c" transform="matrix(1,0,0,1,285,545) translate(40.28888888888889 42.77777777777778)"/><use xlink:href="#d" transform="matrix(1,0,0,1,285,545) translate(75 66.64444444444445)"/><path d="M1160 406c0-3.3 2.7-6 6-6h294c3.3 0 6 2.7 6 6v68c0 3.3-2.7 6-6 6h-294c-3.3 0-6-2.7-6-6z" stroke="#5e5e5e" stroke-width="3" fill="#fff"/><use xlink:href="#e" transform="matrix(1,0,0,1,1165,405) translate(26.066666666666663 41.84027777777778)"/><path d="M680 506c0-3.3 2.7-6 6-6h208c3.3 0 6 2.7 6 6v58c0 3.3-2.7 6-6 6H686c-3.3 0-6-2.7-6-6z" stroke="#5e5e5e" stroke-width="3" fill="#fff"/><use xlink:href="#f" transform="matrix(1,0,0,1,685,505) translate(37.41111111111111 36.52777777777778)"/><path d="M790 497.5V452c0-6.63 5.37-12 12-12h75.5" stroke="#5e5e5e" stroke-width="2" fill="none"/><path d="M791 498.5h-2v-1.03h2z" fill="#5e5e5e"/><path d="M892.76 440l-14.26 4.64v-9.28z" stroke="#5e5e5e" stroke-width="2" fill="#5e5e5e"/><path d="M1097 440h43" stroke="#5e5e5e" stroke-width="2" fill="none"/><path d="M1097.03 441H1096v-2h1.03z" fill="#5e5e5e"/><path d="M1155.26 440l-14.26 4.64v-9.28z" stroke="#5e5e5e" stroke-width="2" fill="#5e5e5e"/><path d="M896 416c0-3.3 2.7-6 6-6h188c3.3 0 6 2.7 6 6v48c0 3.3-2.7 6-6 6H902c-3.3 0-6-2.7-6-6z" stroke="#000" stroke-opacity="0" stroke-width="3" fill="#c1e4f7"/><use xlink:href="#g" transform="matrix(1,0,0,1,901,415) translate(0.2777777777777857 30.27777777777778)"/><path d="M520 956c0-3.3 2.7-6 6-6h188c3.3 0 6 2.7 6 6v180.32c-33.4-31.12-54.2-31.12-66.8-31.12-20 0-46.6 31.12-66.6 31.12-12.4 0-33.4 0-66.6-31.12z" stroke="#5e5e5e" stroke-width="3" fill="#ffdf71"/><use xlink:href="#h" transform="matrix(1,0,0,1,525,955.0000000000001) translate(0 26.90277777777778)"/><use xlink:href="#i" transform="matrix(1,0,0,1,525,955.0000000000001) translate(0 50.769444444444446)"/><use xlink:href="#j" transform="matrix(1,0,0,1,525,955.0000000000001) translate(6.6 50.769444444444446)"/><use xlink:href="#k" transform="matrix(1,0,0,1,525,955.0000000000001) translate(20.555555555555554 50.769444444444446)"/><use xlink:href="#l" transform="matrix(1,0,0,1,525,955.0000000000001) translate(0 71.08055555555555)"/><use xlink:href="#m" transform="matrix(1,0,0,1,525,955.0000000000001) translate(5.279999999999998 71.08055555555555)"/><use xlink:href="#n" transform="matrix(1,0,0,1,525,955.0000000000001) translate(16.444444444444436 71.08055555555555)"/><use xlink:href="#l" transform="matrix(1,0,0,1,525,955.0000000000001) translate(0 90.17388888888887)"/><use xlink:href="#m" transform="matrix(1,0,0,1,525,955.0000000000001) translate(5.279999999999998 90.17388888888887)"/><use xlink:href="#o" transform="matrix(1,0,0,1,525,955.0000000000001) translate(16.444444444444436 90.17388888888887)"/><use xlink:href="#l" transform="matrix(1,0,0,1,525,955.0000000000001) translate(0 109.2672222222222)"/><use xlink:href="#m" transform="matrix(1,0,0,1,525,955.0000000000001) translate(5.279999999999998 109.2672222222222)"/><use xlink:href="#p" transform="matrix(1,0,0,1,525,955.0000000000001) translate(16.444444444444436 109.2672222222222)"/><use xlink:href="#l" transform="matrix(1,0,0,1,525,955.0000000000001) translate(0 128.36055555555555)"/><use xlink:href="#m" transform="matrix(1,0,0,1,525,955.0000000000001) translate(5.279999999999998 128.36055555555555)"/><use xlink:href="#q" transform="matrix(1,0,0,1,525,955.0000000000001) translate(16.444444444444436 128.36055555555555)"/><path d="M360 912.5v39" stroke="#5e5e5e" stroke-width="2" fill="none"/><path d="M361 912.53h-2v-1.03h2z" fill="#5e5e5e"/><path d="M360 966.76l-4.64-14.26h9.28z" stroke="#5e5e5e" stroke-width="2" fill="#5e5e5e"/><path d="M360 1031v.16c0 6.63 5.37 12 12 12h128" stroke="#5e5e5e" stroke-width="2" fill="none"/><path d="M361 1031.03h-2V1030h2z" fill="#5e5e5e"/><path d="M515.26 1043.16L501 1047.8v-9.28z" stroke="#5e5e5e" stroke-width="2" fill="#5e5e5e"/><path d="M360 652.5V820" stroke="#5e5e5e" stroke-width="2" fill="none"/><path d="M361 652.53h-2v-1.03h2z" fill="#5e5e5e"/><path d="M360 835.26L355.36 821h9.28z" stroke="#5e5e5e" stroke-width="2" fill="#5e5e5e"/><path d="M1466 973.32c0 11.5-60.44 20.83-135 20.83s-135-9.33-135-20.83V806.68c0-11.5 60.44-20.83 135-20.83s135 9.33 135 20.83z" stroke="#5e5e5e" stroke-width="3" fill="#fff"/><path d="M1466 806.68c0 11.5-60.44 20.83-135 20.83s-135-9.3-135-20.82" stroke="#5e5e5e" stroke-width="3" fill="none"/><use xlink:href="#r" transform="matrix(1,0,0,1,1201,832.5125) translate(0 41.38541666666666)"/><use xlink:href="#s" transform="matrix(1,0,0,1,1201,832.5125) translate(0 71.85208333333333)"/><use xlink:href="#t" transform="matrix(1,0,0,1,1201,832.5125) translate(16.746666666666666 71.85208333333333)"/><use xlink:href="#u" transform="matrix(1,0,0,1,1201,832.5125) translate(0 96.93652777777777)"/><use xlink:href="#v" transform="matrix(1,0,0,1,1201,832.5125) translate(6.6000000000000005 96.93652777777777)"/><use xlink:href="#w" transform="matrix(1,0,0,1,1201,832.5125) translate(19.16 96.93652777777777)"/><use xlink:href="#x" transform="matrix(1,0,0,1,1201,832.5125) translate(0 119.02541666666667)"/><use xlink:href="#y" transform="matrix(1,0,0,1,1201,832.5125) translate(5.9399999999999995 119.02541666666667)"/><use xlink:href="#z" transform="matrix(1,0,0,1,1201,832.5125) translate(18.5 119.02541666666667)"/><use xlink:href="#x" transform="matrix(1,0,0,1,1201,832.5125) translate(0 140.50541666666666)"/><use xlink:href="#y" transform="matrix(1,0,0,1,1201,832.5125) translate(5.9399999999999995 140.50541666666666)"/><use xlink:href="#A" transform="matrix(1,0,0,1,1201,832.5125) translate(18.5 140.50541666666666)"/><path d="M360 537.5V447c0-6.63 5.37-12 12-12h148" stroke="#5e5e5e" stroke-width="2" fill="none"/><path d="M361 538.5h-2v-1.03h2z" fill="#5e5e5e"/><path d="M535.26 435L521 439.64v-9.28z" stroke="#5e5e5e" stroke-width="2" fill="#5e5e5e"/><path d="M620 472.5V523c0 6.63 5.37 12 12 12h28" stroke="#5e5e5e" stroke-width="2" fill="none"/><path d="M621 472.53h-2v-1.03h2z" fill="#5e5e5e"/><path d="M675.26 535L661 539.64v-9.28z" stroke="#5e5e5e" stroke-width="2" fill="#5e5e5e"/><path d="M1136 590h234c3.3 0 6 2.7 6 6v108c0 3.3-2.7 6-6 6h-228c-3.3 0-6-2.7-6-6zm24 0v120m-24-96h240" stroke="#5e5e5e" stroke-width="3" fill="#fff"/><use xlink:href="#B" transform="matrix(1,0,0,1,1165,619) translate(29.22222222222223 36.80902777777778)"/><use xlink:href="#C" transform="matrix(1,0,0,1,1165,619) translate(15.833333333333343 60.675694444444446)"/><path d="M790 572.5V643c0 6.63 5.37 12 12 12h115.5" stroke="#5e5e5e" stroke-width="2" fill="none"/><path d="M791 572.53h-2v-1.03h2z" fill="#5e5e5e"/><path d="M932.76 655l-14.26 4.64v-9.28z" stroke="#5e5e5e" stroke-width="2" fill="#5e5e5e"/><path d="M936 631c0-3.3 2.7-6 6-6h108c3.3 0 6 2.7 6 6v48c0 3.3-2.7 6-6 6H942c-3.3 0-6-2.7-6-6z" stroke="#000" stroke-opacity="0" stroke-width="3" fill="#c1e4f7"/><use xlink:href="#D" transform="matrix(1,0,0,1,941,630) translate(14.844444444444441 30.27777777777778)"/><path d="M1057 655h59" stroke="#5e5e5e" stroke-width="2" fill="none"/><path d="M1057.03 656H1056v-2h1.03z" fill="#5e5e5e"/><path d="M1131.26 655l-14.26 4.64v-9.28z" stroke="#5e5e5e" stroke-width="2" fill="#5e5e5e"/><path d="M620 912.5V930" stroke="#5e5e5e" stroke-width="2" fill="none"/><path d="M621 912.53h-2v-1.03h2z" fill="#5e5e5e"/><path d="M620 945.26L615.36 931h9.28z" stroke="#5e5e5e" stroke-width="2" fill="#5e5e5e"/><path d="M1468.5 440h69.5c6.63 0 12 5.37 12 12v149.5" stroke="#5e5e5e" stroke-width="2" fill="none"/><path d="M1468.53 441h-1.03v-2h1.03z" fill="#5e5e5e"/><path d="M1550 616.76l-4.64-14.26h9.28z" stroke="#5e5e5e" stroke-width="2" fill="#5e5e5e"/><path d="M886.5 890H720" stroke="#5e5e5e" stroke-width="2" fill="none"/><path d="M887.5 891h-1.03v-2h1.03z" fill="#5e5e5e"/><path d="M704.74 890l14.26-4.64v9.28z" stroke="#5e5e5e" stroke-width="2" fill="#5e5e5e"/><path d="M1193.5 890H1086" stroke="#5e5e5e" stroke-width="2" fill="none"/><path d="M1194.5 891h-1.03v-2h1.03z" fill="#5e5e5e"/><path d="M1070.74 890l14.26-4.64v9.28z" stroke="#5e5e5e" stroke-width="2" fill="#5e5e5e"/><path d="M896 440" stroke="#5e5e5e" stroke-width="2" fill="none"/><path fill="#5e5e5e"/><path d="M892.76 440l-14.26 4.64v-9.28z" stroke="#5e5e5e" stroke-width="2" fill="#5e5e5e"/><path d="M1378.5 650h33" stroke="#5e5e5e" stroke-width="2" fill="none"/><path d="M1378.53 651h-1.03v-2h1.03z" fill="#5e5e5e"/><path d="M1426.76 650l-14.26 4.64v-9.28z" stroke="#5e5e5e" stroke-width="2" fill="#5e5e5e"/><path d="M1430 626c0-3.3 2.7-6 6-6h228c3.3 0 6 2.7 6 6v48c0 3.3-2.7 6-6 6h-228c-3.3 0-6-2.7-6-6z" stroke="#000" stroke-opacity="0" stroke-width="3" fill="#c1e4f7"/><use xlink:href="#E" transform="matrix(1,0,0,1,1435,625) translate(43.42222222222223 30.27777777777778)"/><path d="M1550 681v197c0 6.63-5.37 12-12 12h-52" stroke="#5e5e5e" stroke-width="2" fill="none"/><path d="M1551 681.03h-2V680h2z" fill="#5e5e5e"/><path d="M1470.74 890l14.26-4.64v9.28z" stroke="#5e5e5e" stroke-width="2" fill="#5e5e5e"/><path d="M120 586c0-3.3 2.7-6 6-6h112c3.3 0 6-2.7 6-6v-8c0-3.3 1.8-4 4-1.54l28 31.08c2.2 2.46 2.2 6.46 0 8.92l-28 31.08c-2.2 2.46-4 1.77-4-1.54v-8c0-3.3-2.7-6-6-6H126c-3.3 0-6-2.7-6-6z" stroke="#5e5e5e" stroke-width="3" fill="#c92d39"/><use xlink:href="#F" transform="matrix(1,0,0,1,125,565) translate(35.62222222222222 41.84027777777778)"/><path d="M280 976c0-3.3 2.7-6 6-6h148c3.3 0 6 2.7 6 6v48c0 3.3-2.7 6-6 6H286c-3.3 0-6-2.7-6-6z" stroke="#000" stroke-opacity="0" stroke-width="3" fill-opacity="0"/><use xlink:href="#G" transform="matrix(1,0,0,1,285,975) translate(10.122222222222234 30.27777777777778)"/><path d="M440 706c0-3.3 2.7-6 6-6h128c3.3 0 6 2.7 6 6v48c0 3.3-2.7 6-6 6H446c-3.3 0-6-2.7-6-6z" stroke="#000" stroke-opacity="0" stroke-width="3" fill-opacity="0"/><use xlink:href="#H" transform="matrix(1,0,0,1,445,705) translate(-0.2888888888888914 30.844444444444445)"/><path d="M887.5 866c0-3.3 2.7-6 6-6h168c3.3 0 6 2.7 6 6v48c0 3.3-2.7 6-6 6h-168c-3.3 0-6-2.7-6-6z" stroke="#000" stroke-opacity="0" stroke-width="3" fill="#c1e4f7"/><use xlink:href="#E" transform="matrix(1,0,0,1,892.5,865) translate(13.422222222222231 30.27777777777778)"/><path d="M280 846c0-3.3 2.7-6 6-6h148c3.3 0 6 2.7 6 6v58c0 3.3-2.7 6-6 6H286c-3.3 0-6-2.7-6-6z" stroke="#5e5e5e" stroke-width="3" fill="#fff"/><path d="M384.9 861.95l-9.3-.1v-5.55H335v40.6h40.6l9.3-34.6.1-.35h-.1zm-46.1 9.1h16.6v11.1h-16.6v-11.1zM372 893.2h-33.2v-5.55H372v5.55zm0-11.05h-12.9v-1.85H372v1.85zm0-4.6h-12.9v-1.85H372v1.85zm0-4.65h-12.9v-1.85H372v1.85zm0-7.35h-33.2v-3.7H372v3.7z" fill="#f3f3f3"/><use xlink:href="#I" transform="matrix(1,0,0,1,285,845) translate(17.322222222222216 35.84444444444445)"/><path d="M442.5 595H498c6.63 0 12 5.37 12 12v74.5" stroke="#5e5e5e" stroke-width="2" fill="none"/><path d="M442.53 596h-1.03v-2h1.03z" fill="#5e5e5e"/><path d="M510 696.76l-4.64-14.26h9.28z" stroke="#5e5e5e" stroke-width="2" fill="#5e5e5e"/><path d="M510 761v41.25c0 6.63 5.37 12 12 12h86c6.63 0 12 5.37 12 12V850" stroke="#5e5e5e" stroke-width="2" fill="none"/><path d="M511 761.03h-2V760h2z" fill="#5e5e5e"/><path d="M620 865.26L615.36 851h9.28z" stroke="#5e5e5e" stroke-width="2" fill="#5e5e5e"/><path d="M540 406c0-3.3 2.7-6 6-6h148c3.3 0 6 2.7 6 6v58c0 3.3-2.7 6-6 6H546c-3.3 0-6-2.7-6-6z" stroke="#5e5e5e" stroke-width="3" fill="#fff"/><path d="M644.9 421.95l-9.3-.1v-5.55H595v40.6h40.6l9.3-34.6.1-.35h-.1zm-46.1 9.1h16.6v11.1h-16.6v-11.1zM632 453.2h-33.2v-5.55H632v5.55zm0-11.05h-12.9v-1.85H632v1.85zm0-4.6h-12.9v-1.85H632v1.85zm0-4.65h-12.9v-1.85H632v1.85zm0-7.35h-33.2v-3.7H632v3.7z" fill="#f3f3f3"/><g><use xlink:href="#J" transform="matrix(1,0,0,1,545,405) translate(36.01111111111111 23.91111111111111)"/><use xlink:href="#K" transform="matrix(1,0,0,1,545,405) translate(15.844444444444441 47.77777777777778)"/></g><path d="M668 1180c17.67 0 32 8.95 32 20s-14.33 20-32 20h-96c-17.67 0-32-8.95-32-20s14.33-20 32-20z" stroke="#5e5e5e" stroke-width="3" fill="#c92d39"/><g><use xlink:href="#L" transform="matrix(1,0,0,1,545,1185) translate(53.77166666666667 21.52777777777778)"/></g><path d="M620 1123.22V1160" stroke="#5e5e5e" stroke-width="2" fill="none"/><path d="M621 1123.25h-2v-.4l2-1.25z" fill="#5e5e5e"/><path d="M620 1175.26l-4.64-14.26h9.28z" stroke="#5e5e5e" stroke-width="2" fill="#5e5e5e"/><path d="M315 606c0-3.3 2.7-6 6-6h78c3.3 0 6 2.7 6 6v28c0 3.3-2.7 6-6 6h-78c-3.3 0-6-2.7-6-6z" stroke="#000" stroke-opacity="0" stroke-width="3" fill="#c1e4f7"/><g><use xlink:href="#M" transform="matrix(1,0,0,1,320,605) translate(-1.8555555555555543 20.844444444444445)"/></g><path d="M872.5 726c0-3.3 2.7-6 6-6h198c3.3 0 6 2.7 6 6v58c0 3.3-2.7 6-6 6h-198c-3.3 0-6-2.7-6-6z" stroke="#5e5e5e" stroke-width="3" fill="#fff"/><path d="M1002.4 741.95l-9.3-.1v-5.55h-40.6v40.6h40.6l9.3-34.6.1-.35h-.1zm-46.1 9.1h16.6v11.1h-16.6v-11.1zm33.2 22.15h-33.2v-5.55h33.2v5.55zm0-11.05h-12.9v-1.85h12.9v1.85zm0-4.6h-12.9v-1.85h12.9v1.85zm0-4.65h-12.9v-1.85h12.9v1.85zm0-7.35h-33.2v-3.7h33.2v3.7z" fill="#f3f3f3"/><g><use xlink:href="#J" transform="matrix(1,0,0,1,877.5,725) translate(61.01111111111111 23.91111111111111)"/><use xlink:href="#N" transform="matrix(1,0,0,1,877.5,725) translate(8.988888888888908 47.77777777777778)"/></g><path d="M887.5 1019.16c0-3.3 2.7-6 6-6h168c3.3 0 6 2.7 6 6v48c0 3.3-2.7 6-6 6h-168c-3.3 0-6-2.7-6-6z" stroke="#000" stroke-opacity="0" stroke-width="3" fill="#c1e4f7"/><g><use xlink:href="#O" transform="matrix(1,0,0,1,892.5,1018.1590833333335) translate(35.4 30.27777777777778)"/></g><path d="M442.5 595H658c6.63 0 12 5.37 12 12v136c0 6.63 5.37 12 12 12h170.5" stroke="#5e5e5e" stroke-width="2" fill="none"/><path d="M442.53 596h-1.03v-2h1.03z" fill="#5e5e5e"/><path d="M867.76 755l-14.26 4.64v-9.28z" stroke="#5e5e5e" stroke-width="2" fill="#5e5e5e"/><path d="M977.5 792.5v49" stroke="#5e5e5e" stroke-width="2" fill="none"/><path d="M978.5 792.53h-2v-1.03h2z" fill="#5e5e5e"/><path d="M977.5 856.76l-4.64-14.26h9.28z" stroke="#5e5e5e" stroke-width="2" fill="#5e5e5e"/><path d="M977.5 921v73.66" stroke="#5e5e5e" stroke-width="2" fill="none"/><path d="M978.5 921.03h-2V920h2z" fill="#5e5e5e"/><path d="M977.5 1009.92l-4.64-14.26h9.28z" stroke="#5e5e5e" stroke-width="2" fill="#5e5e5e"/><path d="M886.5 1043.16H740" stroke="#5e5e5e" stroke-width="2" fill="none"/><path d="M887.5 1044.16h-1.03v-2h1.03z" fill="#5e5e5e"/><path d="M724.74 1043.16l14.26-4.64v9.27z" stroke="#5e5e5e" stroke-width="2" fill="#5e5e5e"/><defs><path fill="#333" d="M103-24C79 10-2-14 8-59c42-186 129-353 193-524 23-62 63-135 99-197 39-38 106-10 109 47 27 100 51 209 81 307 8 25 72 24 72 63 0 44-26 46-37 75 12 83 46 156 55 243 7 63-106 47-114 11-13-58-36-170-57-231-3-4-7-8-9-14-69 4-134 40-198 52-53 21-53 108-81 160-4 16-8 29-18 43zm215-551c-16 18-92 195-73 208 46 2 100-12 123-31-5-30-32-162-38-171-2-3-6-5-12-6" id="P"/><path fill="#333" d="M23-677c-68-88 127-122 212-122 113 0 253 24 291 82 92 144-48 310-153 365-52 27-102 48-161 69-56 20-53 15-58 80-4 49-8 103-13 153-3 31-19 46-43 46-44 0-65-28-63-81 5-162 8-330 16-486 3-53-4-75-28-106zm415 73c0-44-44-66-132-66-78 0-124 8-135 26-10 16-14 89-14 218 0 44 22 39 57 25 83-34 224-115 224-203" id="Q"/><path fill="#333" d="M81-140c34 0 77 28 77 61 0 38-43 81-82 81C34 2 7-30 9-72c2-44 21-68 72-68" id="R"/><path fill="#333" d="M159-751c124-55 327-50 495-50 79 0 118 21 118 62 0 33-11 54-30 67-34-9-133-18-133 25 0 94 29 169 29 256 0 132-9 209-47 289-37 78-166 115-275 84C238-40 2-165 2-253c0-31 18-66 44-66 74 0 115 89 173 119 38 20 106 49 152 49 150 0 143-145 135-286-3-44-31-193-41-198-10-16-28-24-53-24-80-1-164 20-232 25-31 2-63-17-63-46 0-32 13-58 42-71" id="S"/><path fill="#333" d="M371-533c189 0 256 55 239 237-9 91-67 138-157 205C374-33 301-7 236-7 155-7 13-82 18-160c3-44 62-73 96-38 43 44 152 73 218 29 77-51 166-125 156-169 2-44-67-63-119-62-47 1-108 1-155 3C87-393 13-429 1-531c11-87 101-150 165-187 90-52 160-96 290-87 34 2 118 78 115 115-3 35-23 38-55 45-15 4-26-4-33-24-37-64-116-1-164 12-41 11-154 77-154 113 0 15 14 22 41 22 45 0 127-11 165-11" id="T"/><g id="a"><use transform="matrix(0.02222222222222222,0,0,0.02222222222222222,0,0)" xlink:href="#P"/><use transform="matrix(0.02222222222222222,0,0,0.02222222222222222,13.044444444444443,0)" xlink:href="#Q"/><use transform="matrix(0.02222222222222222,0,0,0.02222222222222222,25.577777777777776,0)" xlink:href="#Q"/><use transform="matrix(0.02222222222222222,0,0,0.02222222222222222,38.11111111111111,0)" xlink:href="#R"/><use transform="matrix(0.02222222222222222,0,0,0.02222222222222222,41.93333333333333,0)" xlink:href="#S"/><use transform="matrix(0.02222222222222222,0,0,0.02222222222222222,59.35555555555556,0)" xlink:href="#T"/></g><path fill="#333" d="M192-85c-3 48 46 100 89 72 52-75 73-232 102-321 46-139 146-233 278-374 22-37 2-105-46-93-81 20-199 174-252 246-53 73-46 65-110 7-63-57-96-136-132-220-11-25-31-37-54-37-36-1-56 32-56 68 32 142 118 264 224 332 15 16 24 24 21 38" id="U"/><g id="c"><use transform="matrix(0.022222222222222223,0,0,0.022222222222222223,0,0)" xlink:href="#P"/><use transform="matrix(0.022222222222222223,0,0,0.022222222222222223,13.044444444444444,0)" xlink:href="#Q"/><use transform="matrix(0.022222222222222223,0,0,0.022222222222222223,25.577777777777772,0)" xlink:href="#Q"/><use transform="matrix(0.022222222222222223,0,0,0.022222222222222223,38.11111111111111,0)" xlink:href="#R"/><use transform="matrix(0.022222222222222223,0,0,0.022222222222222223,41.93333333333333,0)" xlink:href="#Q"/><use transform="matrix(0.022222222222222223,0,0,0.022222222222222223,54.46666666666666,0)" xlink:href="#U"/></g><path fill="#333" d="M68-174c-8-157-1-333-1-488 0-23-21-28-12-60 24-87 141-85 256-77 161 12 317 42 251 258-5 17-40 45-44 60 15 30 85 80 98 123 62 108 25 192-76 258C455-45 341-9 207-4 145-2 19-30 19-85c0-36 51-41 49-89zm137-510c-18 6-26 137-16 192 30 22 66 2 112-6 70-13 158-95 159-132 17-68-169-82-255-54zm-15 330c-15 57-2 155 5 215 6 4 6 12 18 11 101-5 211-32 267-82 52-46 58-91 12-140s-73-73-81-73c-39 14-121 48-173 54-15 2-34 14-48 15" id="V"/><path fill="#333" d="M44-443c79-191 208-366 448-366 141 0 239 118 267 253 46 222-61 413-213 490-83 42-221 78-338 30-55-23-106-43-129-82-26-14-80-140-57-202 2-41 8-89 22-123zm103 115c1 136 75 191 208 191 130 0 180-50 241-135 38-53 55-111 55-169 0-109-73-236-179-227-143 12-260 151-311 271-9 24-14 47-14 69" id="W"/><path fill="#333" d="M608-642l-20 77c-36 56-69 94-113 138-49 48-58 40-29 81 33 46 69 89 97 147 44 89 52 141 40 147-3 38-20 49-63 52-68 5-97-106-129-160-40-68-56-162-144-164-53-1-27 78-45 121-7 56-12 123-28 170C157-4 113 24 66-1 46-11 40-39 49-87c19-111 19-139 19-313 0-144 1-187-40-242-27-37-13-94 26-108 103-36 250-59 389-41 63 8 182 85 165 149zm-140 11c-10-39-42-58-96-57-53 12-154 21-179 43-5 9-8 31-8 65 0 151 19 135 127 94 94-36 148-79 156-145" id="X"/><path fill="#333" d="M103-24C79 10-2-14 8-59c42-186 129-353 193-524 23-62 63-135 99-197 39-38 106-10 109 47 27 100 51 209 81 307 8 25 72 24 72 63 0 44-26 46-37 75 12 83 46 156 55 243 7 63-106 47-114 11-13-58-36-170-57-231-3-4-7-8-9-14-69 4-134 40-198 52-53 21-53 108-81 160-4 16-8 29-18 43zm215-551c-16 18-92 195-73 208 46 2 100-12 123-31-5-30-32-162-38-171-2-3-6-5-12-6" id="Y"/><path fill="#333" d="M19-91c0-222 71-428 58-668-3-62 121-44 170-33 118 27 229 50 293 128 44 53 63 97 63 217 0 165-189 328-383 400-36 13-62 45-108 45-66 0-93-23-93-89zm185-582c-30 151-43 322-58 489 5 39 27 28 60 14 129-54 276-147 276-304 0-155-106-203-278-199" id="Z"/><path fill="#333" d="M590-683c0-95-64-132-148-103-62 21-113 58-161 92-97 69-165 165-223 275C-45-222 51 11 277-12c154-16 257-81 343-160 63-58 100-126 109-243 12-155-158-93-246-67-61 18-178 69-168 115-2 30 28 68 54 64 69-10 133-52 201-67 9-2 20 9 20 17 0 11-18 38-57 79-85 91-188 136-306 136-55 0-99-68-99-127 0-30 16-69 37-123 25-64 237-288 318-281 25-8 66 40 79 44 19 0 28-19 28-58" id="aa"/><path fill="#333" d="M629-645c28 177 9 401 28 582 3 29-18 50-47 50-97 0-67-194-71-306-1-24-4-66-3-92 1-39-15-57-30-33-49 79-88 161-139 243-9 15-21 23-34 23-33 0-70-69-89-115-10-23-57-152-73-152-28 0-27 119-31 162-9 93-16 174-27 265-2 3-35 21-48 20-71-3-50-117-43-176 24-211 38-410 84-595 39-67 121 2 138 59 22 73 63 167 84 249 7 23 13 34 20 34 17 0 54-75 107-225 17-48 42-155 115-96 31 25 52 57 59 103" id="ab"/><path fill="#333" d="M330-158c82-22 193-18 286-31 38 11 58 81 24 113-25 24-71 25-116 25-135 0-238 34-358 47C61 7 4-52 15-159c12-113 37-213 32-340-2-59 2-121-2-178-2-44 35-62 81-61 104-31 222-52 345-64 68-7 103 34 111 94 2 12-3 22-9 31-33 14-62 15-103 16-100 2-196 10-270 40h-8c-18 23-11 79-15 106-1 13 5 22 16 25 82-10 176-25 264-12 44 7 78 26 71 72-7 49-76 30-125 30-78 0-138 22-210 29-24 1-35 28-36 52-2 41-10 83-8 126-19 84 122 51 181 35" id="ac"/><path fill="#333" d="M590-683c0-95-64-132-148-103-62 21-113 58-161 92-97 69-165 165-223 275C-45-222 51 11 277-12c154-16 257-81 343-160 63-58 100-126 109-243 12-155-158-93-246-67-61 18-178 69-168 115-2 30 28 68 54 64 69-10 133-52 201-67 9-2 20 9 20 17 0 11-18 38-57 79-85 91-188 136-306 136-55 0-99-68-99-127 0-30 16-69 37-123 25-64 237-288 318-281 25-8 66 40 79 44 19 0 28-19 28-58" id="ad"/><path fill="#333" d="M583 1c26 5 52-17 51-41 24-60-22-103-43-144-74-69-132-138-184-228-37-64 44-88 81-120 65-56 138-104 195-168 35-39 5-108-40-113-66 17-104 68-150 105-81 65-158 127-245 187-18 12-48 33-70 13-6-6-8-14-7-23 3-63 18-122 28-181-3-53-39-88-92-91-82 12-51 140-71 216 1 133-13 257-20 381-3 58-27 167 27 193 35 29 78-2 98-20 30-59 16-164 24-251 3-31 38-61 73-59 78 41 118 121 174 184 38 44 71 96 112 139 15 15 32 34 59 21" id="ae"/><path fill="#333" d="M521-275c40-33 108-24 108 34 0 49-75 103-210 183-80 47-247 72-323 10-66-54-95-101-82-218 12-106 41-136 91-224 55-96 145-209 240-278 32-23 68-33 107-33 86 2 108 61 107 158 0 55-15 82-44 82-55 1-25-116-79-110-132 15-229 223-291 334-48 86-31 226 81 218 122-9 217-92 295-156" id="af"/><g id="e"><use transform="matrix(0.022222222222222223,0,0,0.022222222222222223,0,0)" xlink:href="#V"/><use transform="matrix(0.022222222222222223,0,0,0.022222222222222223,14.28888888888889,0)" xlink:href="#W"/><use transform="matrix(0.022222222222222223,0,0,0.022222222222222223,32.13333333333333,0)" xlink:href="#X"/><use transform="matrix(0.022222222222222223,0,0,0.022222222222222223,45.86666666666667,0)" xlink:href="#Y"/><use transform="matrix(0.022222222222222223,0,0,0.022222222222222223,58.91111111111111,0)" xlink:href="#Z"/><use transform="matrix(0.022222222222222223,0,0,0.022222222222222223,72.33333333333333,0)" xlink:href="#aa"/><use transform="matrix(0.022222222222222223,0,0,0.022222222222222223,89.22222222222221,0)" xlink:href="#Y"/><use transform="matrix(0.022222222222222223,0,0,0.022222222222222223,102.26666666666665,0)" xlink:href="#ab"/><use transform="matrix(0.022222222222222223,0,0,0.022222222222222223,117.19999999999999,0)" xlink:href="#ac"/><use transform="matrix(0.022222222222222223,0,0,0.022222222222222223,132,0)" xlink:href="#ad"/><use transform="matrix(0.022222222222222223,0,0,0.022222222222222223,148.88888888888889,0)" xlink:href="#ac"/><use transform="matrix(0.022222222222222223,0,0,0.022222222222222223,163.6888888888889,0)" xlink:href="#ac"/><use transform="matrix(0.022222222222222223,0,0,0.022222222222222223,178.4888888888889,0)" xlink:href="#ae"/><use transform="matrix(0.022222222222222223,0,0,0.022222222222222223,194.17777777777783,0)" xlink:href="#R"/><use transform="matrix(0.022222222222222223,0,0,0.022222222222222223,198.00000000000006,0)" xlink:href="#af"/><use transform="matrix(0.022222222222222223,0,0,0.022222222222222223,212.0888888888889,0)" xlink:href="#W"/><use transform="matrix(0.022222222222222223,0,0,0.022222222222222223,229.93333333333334,0)" xlink:href="#ab"/><path fill="#333" d="M-1.1 2.73h247.08v.44H-1.12z"/></g><path fill="#333" d="M241-1c89-9 265-42 213 87-19 47-79 30-136 38-61 8-140 8-212 8-58 0-95-35-94-93-2-9 22-38 33-35 70-1 130 2 196-5" id="ag"/><path fill="#333" d="M371-533c189 0 256 55 239 237-9 91-67 138-157 205C374-33 301-7 236-7 155-7 13-82 18-160c3-44 62-73 96-38 43 44 152 73 218 29 77-51 166-125 156-169 2-44-67-63-119-62-47 1-108 1-155 3C87-393 13-429 1-531c11-87 101-150 165-187 90-52 160-96 290-87 34 2 118 78 115 115-3 35-23 38-55 45-15 4-26-4-33-24-37-64-116-1-164 12-41 11-154 77-154 113 0 15 14 22 41 22 45 0 127-11 165-11" id="ah"/><path fill="#333" d="M690-16c1 27-22 53-49 52-21 0-47-17-78-51-31-35-50-52-55-52C384-16 286 0 174-46 66-91 12-146 12-292c0-165 91-286 178-377 58-61 105-100 201-130 173-55 319 38 370 162 9 21 40 127 19 177-19 105-68 191-126 260-19 22-27 38-27 44 1 18 74 108 63 140zM445-229c4-68-43-207 50-207 52 0 63 37 68 87 8 80 61-19 73-41 58-107 35-292-110-292-94 0-188 52-242 114-50 58-151 211-151 284 0 83 72 131 159 129 48-1 160-25 153-74" id="ai"/><path fill="#333" d="M21-302C-7-136 9 24 196-12c147-28 263-93 386-142 57-23 26-120-26-120-111 32-240 115-378 126-13 1-22-26-25-45 30-174 59-350 88-524 10-62-86-124-120-61-39 73-49 196-69 277-19 77-22 145-31 199" id="aj"/><g id="f"><use transform="matrix(0.022222222222222223,0,0,0.022222222222222223,0,0)" xlink:href="#V"/><use transform="matrix(0.022222222222222223,0,0,0.022222222222222223,14.28888888888889,0)" xlink:href="#aa"/><use transform="matrix(0.022222222222222223,0,0,0.022222222222222223,31.17777777777778,0)" xlink:href="#aa"/><use transform="matrix(0.022222222222222223,0,0,0.022222222222222223,48.066666666666656,0)" xlink:href="#ag"/><use transform="matrix(0.022222222222222223,0,0,0.022222222222222223,58.64444444444444,0)" xlink:href="#ah"/><use transform="matrix(0.022222222222222223,0,0,0.022222222222222223,72.66666666666666,0)" xlink:href="#ai"/><use transform="matrix(0.022222222222222223,0,0,0.022222222222222223,90.6222222222222,0)" xlink:href="#aj"/><use transform="matrix(0.022222222222222223,0,0,0.022222222222222223,103.86666666666665,0)" xlink:href="#R"/><use transform="matrix(0.022222222222222223,0,0,0.022222222222222223,107.68888888888887,0)" xlink:href="#Q"/><use transform="matrix(0.022222222222222223,0,0,0.022222222222222223,120.2222222222222,0)" xlink:href="#U"/></g><path fill="#333" d="M106-737c41-53 131 12 108 86-42 139-71 285-71 455 0 88 72 66 143 48 49-12 128-35 183-63 38-19 36-69 44-119 17-114 31-247 31-354 0-57 26-85 79-85 37 0 55 27 55 81 0 190-34 397-59 573 4 31 20 93-13 105-8 10-30 7-65-8-16-20-33-38-51-54C397-48 305 0 205 0 79 0 5-43 13-176c13-196 50-391 93-561" id="ak"/><path fill="#333" d="M593-790c58 0 99 54 77 117-5 13-15 16-35 14-70-7-152-3-229 7-31 20-24 81-26 127-4 138-16 277-16 422 0 32 4 70-21 83-26 36-88 7-103-20 1-182 10-346 21-521 2-27 11-81-18-84-73-7-138 11-206 3-20-18-39-18-32-51-3-78 74-91 145-91 129 0 251 6 369-8 25-3 49 2 74 2" id="al"/><path fill="#333" d="M292-638c-67 2-113 14-176 21-81 9-112-68-58-103 132-46 304-52 470-66l65 5c50 52 43 111-50 111-45 0-75 15-112 18-18 16-19 83-24 152-7 108-21 214-33 322-5 46 36 20 67 20 54 0 81-10 139-16 43 25 50 62 23 110-151 29-311 50-490 79C58 24-8 22 3-44c14-83 161-45 224-90 22-16 24-69 29-107 17-126 33-258 36-397" id="am"/><path fill="#333" d="M39-49c-7-93 9-204-6-289-18-30-12-41 1-77 37-27 19-97 25-162 2-23-27-37-49-40-11-18-14-56 0-71 17-39 273-99 376-109 72-7 163-32 165 45 1 65-62 51-115 66-63 18-176 24-229 55-41 23-20 107-25 176 83-2 166-25 259-33 74-6 91 70 44 97-80 23-228 35-304 57-18 6-27 18-27 35-9 45 6 274-42 299-35 2-92-5-73-49" id="an"/><path fill="#333" d="M21-302C-7-136 9 24 196-12c147-28 263-93 386-142 57-23 26-120-26-120-111 32-240 115-378 126-13 1-22-26-25-45 30-174 59-350 88-524 10-62-86-124-120-61-39 73-49 196-69 277-19 77-22 145-31 199" id="ao"/><g id="g"><use transform="matrix(0.022222222222222223,0,0,0.022222222222222223,0,0)" xlink:href="#V"/><use transform="matrix(0.022222222222222223,0,0,0.022222222222222223,14.28888888888889,0)" xlink:href="#ac"/><use transform="matrix(0.022222222222222223,0,0,0.022222222222222223,29.08888888888889,0)" xlink:href="#Y"/><use transform="matrix(0.022222222222222223,0,0,0.022222222222222223,42.13333333333333,0)" xlink:href="#ak"/><use transform="matrix(0.022222222222222223,0,0,0.022222222222222223,57.75555555555556,0)" xlink:href="#al"/><use transform="matrix(0.022222222222222223,0,0,0.022222222222222223,73.73333333333333,0)" xlink:href="#am"/><use transform="matrix(0.022222222222222223,0,0,0.022222222222222223,87.84444444444445,0)" xlink:href="#an"/><use transform="matrix(0.022222222222222223,0,0,0.022222222222222223,100.13333333333334,0)" xlink:href="#ak"/><use transform="matrix(0.022222222222222223,0,0,0.022222222222222223,115.75555555555556,0)" xlink:href="#ao"/><use transform="matrix(0.022222222222222223,0,0,0.022222222222222223,129.42222222222222,0)" xlink:href="#T"/><use transform="matrix(0.022222222222222223,0,0,0.022222222222222223,143.44444444444443,0)" xlink:href="#W"/><use transform="matrix(0.022222222222222223,0,0,0.022222222222222223,161.28888888888886,0)" xlink:href="#ak"/><use transform="matrix(0.022222222222222223,0,0,0.022222222222222223,176.9111111111111,0)" xlink:href="#Q"/></g><path fill="#333" d="M24-128c0-158-18-313-5-472 6-74-11-192 62-191 78 1 88 68 113 130 59 143 102 191 174 297 50 73 81 109 92 109 8 0 12-3 13-9 24-163 3-322-12-477-6-63 62-76 101-37 65 64 45 212 54 340 10 141 7 304-15 413-8 15-20 23-37 23-76 0-203-132-244-200-33-54-79-109-116-169l4 4c-9-20-41-55-54-51-14 102-5 244 6 344 3 30-15 69-41 68-9 0-28-1-56-3-44-28-39-45-39-119" id="ap"/><path fill="#333" d="M635-31c28-53 7-115-31-143-7-19-67-63-88-82-39-36-80-78-117-115 1-16 41-65 118-148l-10 11c30-36 53-67 85-95 54-48 78-89 78-117s-20-70-52-70c-36 0-116 78-245 230-22 26-38 59-67 71-30 12-85-104-102-151-13-36-72-158-75-157-34-47-96-35-89 35 8 88 69 162 101 236 14 20 74 122 77 140-20 61-139 209-182 265-18 23-24 44-24 60C11-36 45 1 69 0c45-2 96-97 124-134 67-89 109-132 124-131 48 2 103 85 141 115 20 16 39 33 56 52 49 58 88 82 121 67" id="aq"/><path fill="#333" d="M107-780c100 15 51 176 51 272 0 29 23 25 56 24 33-11 175 4 171-42 9-67 4-153 14-224 12-14 39-57 70-50 51 0 74 34 69 103L490-47c-6 28-25 57-57 56-118-5-54-182-54-299 0-34 3-75-15-85-65 6-127 12-191 19-52 29-23 162-29 239C135-7 87 19 22-30 10-48 7-67 13-88c-16-100 8-215 8-322 0-127-9-364 86-370" id="ar"/><g id="h"><use transform="matrix(0.022222222222222223,0,0,0.022222222222222223,0,0)" xlink:href="#am"/><use transform="matrix(0.022222222222222223,0,0,0.022222222222222223,14.111111111111112,0)" xlink:href="#ap"/><use transform="matrix(0.022222222222222223,0,0,0.022222222222222223,28.355555555555558,0)" xlink:href="#Z"/><use transform="matrix(0.022222222222222223,0,0,0.022222222222222223,41.77777777777778,0)" xlink:href="#ac"/><use transform="matrix(0.022222222222222223,0,0,0.022222222222222223,56.57777777777778,0)" xlink:href="#aq"/><use transform="matrix(0.022222222222222223,0,0,0.022222222222222223,71.60000000000001,0)" xlink:href="#R"/><use transform="matrix(0.022222222222222223,0,0,0.022222222222222223,75.42222222222223,0)" xlink:href="#ar"/><use transform="matrix(0.022222222222222223,0,0,0.022222222222222223,87.44444444444446,0)" xlink:href="#al"/><use transform="matrix(0.022222222222222223,0,0,0.022222222222222223,103.42222222222223,0)" xlink:href="#ab"/><use transform="matrix(0.022222222222222223,0,0,0.022222222222222223,118.35555555555555,0)" xlink:href="#ao"/></g><path fill="#333" d="M44-228v-78h244v78H44" id="as"/><use transform="matrix(0.02222222222222222,0,0,0.02222222222222222,0,0)" xlink:href="#as" id="j"/><path fill="#333" d="M68-174c-8-157-1-333-1-488 0-23-21-28-12-60 24-87 141-85 256-77 161 12 317 42 251 258-5 17-40 45-44 60 15 30 85 80 98 123 62 108 25 192-76 258C455-45 341-9 207-4 145-2 19-30 19-85c0-36 51-41 49-89zm137-510c-18 6-26 137-16 192 30 22 66 2 112-6 70-13 158-95 159-132 17-68-169-82-255-54zm-15 330c-15 57-2 155 5 215 6 4 6 12 18 11 101-5 211-32 267-82 52-46 58-91 12-140s-73-73-81-73c-39 14-121 48-173 54-15 2-34 14-48 15" id="at"/><g id="k"><use transform="matrix(0.01777777777777777,0,0,0.01777777777777777,0,0)" xlink:href="#at"/><use transform="matrix(0.01777777777777777,0,0,0.01777777777777777,11.431111111111107,0)" xlink:href="#W"/><use transform="matrix(0.01777777777777777,0,0,0.01777777777777777,25.706666666666656,0)" xlink:href="#W"/><use transform="matrix(0.01777777777777777,0,0,0.01777777777777777,39.982222222222205,0)" xlink:href="#al"/><use transform="matrix(0.01777777777777777,0,0,0.01777777777777777,52.76444444444442,0)" xlink:href="#T"/><use transform="matrix(0.01777777777777777,0,0,0.01777777777777777,63.98222222222219,0)" xlink:href="#al"/><use transform="matrix(0.01777777777777777,0,0,0.01777777777777777,76.76444444444441,0)" xlink:href="#X"/><use transform="matrix(0.01777777777777777,0,0,0.01777777777777777,87.75111111111107,0)" xlink:href="#Y"/><use transform="matrix(0.01777777777777777,0,0,0.01777777777777777,98.18666666666662,0)" xlink:href="#Q"/></g><use transform="matrix(0.01777777777777777,0,0,0.01777777777777777,0,0)" xlink:href="#as" id="m"/><g id="n"><use transform="matrix(0.01777777777777777,0,0,0.01777777777777777,0,0)" xlink:href="#at"/><use transform="matrix(0.01777777777777777,0,0,0.01777777777777777,11.431111111111107,0)" xlink:href="#W"/><use transform="matrix(0.01777777777777777,0,0,0.01777777777777777,25.706666666666656,0)" xlink:href="#W"/><use transform="matrix(0.01777777777777777,0,0,0.01777777777777777,39.982222222222205,0)" xlink:href="#al"/><use transform="matrix(0.01777777777777777,0,0,0.01777777777777777,52.76444444444442,0)" xlink:href="#T"/><use transform="matrix(0.01777777777777777,0,0,0.01777777777777777,63.98222222222219,0)" xlink:href="#al"/><use transform="matrix(0.01777777777777777,0,0,0.01777777777777777,76.76444444444441,0)" xlink:href="#X"/><use transform="matrix(0.01777777777777777,0,0,0.01777777777777777,87.75111111111107,0)" xlink:href="#Y"/><use transform="matrix(0.01777777777777777,0,0,0.01777777777777777,98.18666666666662,0)" xlink:href="#Q"/><use transform="matrix(0.01777777777777777,0,0,0.01777777777777777,108.21333333333328,0)" xlink:href="#ab"/><use transform="matrix(0.01777777777777777,0,0,0.01777777777777777,120.15999999999994,0)" xlink:href="#Y"/><use transform="matrix(0.01777777777777777,0,0,0.01777777777777777,130.59555555555548,0)" xlink:href="#Z"/><use transform="matrix(0.01777777777777777,0,0,0.01777777777777777,141.33333333333326,0)" xlink:href="#ac"/></g><path fill="#333" d="M23-677c-68-88 127-122 212-122 113 0 253 24 291 82 92 144-48 310-153 365-52 27-102 48-161 69-56 20-53 15-58 80-4 49-8 103-13 153-3 31-19 46-43 46-44 0-65-28-63-81 5-162 8-330 16-486 3-53-4-75-28-106zm415 73c0-44-44-66-132-66-78 0-124 8-135 26-10 16-14 89-14 218 0 44 22 39 57 25 83-34 224-115 224-203" id="au"/><path fill="#333" d="M742-672c19-13 30-35 30-67 0-41-39-62-118-62-161 0-276 4-410 26-79 13-122 26-127 95-2 29 32 48 63 46 68-5 152-26 232-25 25 0 43 8 53 24 14 24 44 187 44 247 1 132-5 244-138 237-110-6-195-73-255-135-23-23-47-33-70-33-25 0-44 36-44 66C2-167 240-39 316-18c118 33 253-12 284-102 27-78 38-148 38-271 0-87-29-162-29-256 0-42 93-35 133-25" id="av"/><g id="o"><use transform="matrix(0.01777777777777777,0,0,0.01777777777777777,0,0)" xlink:href="#au"/><use transform="matrix(0.01777777777777777,0,0,0.01777777777777777,10.026666666666662,0)" xlink:href="#ao"/><use transform="matrix(0.01777777777777777,0,0,0.01777777777777777,20.95999999999999,0)" xlink:href="#W"/><use transform="matrix(0.01777777777777777,0,0,0.01777777777777777,35.23555555555554,0)" xlink:href="#al"/><use transform="matrix(0.01777777777777777,0,0,0.01777777777777777,48.01777777777776,0)" xlink:href="#ao"/><use transform="matrix(0.01777777777777777,0,0,0.01777777777777777,58.95111111111109,0)" xlink:href="#U"/><use transform="matrix(0.01777777777777777,0,0,0.01777777777777777,70.91555555555553,0)" xlink:href="#R"/><use transform="matrix(0.01777777777777777,0,0,0.01777777777777777,73.38666666666663,0)" xlink:href="#av"/><use transform="matrix(0.01777777777777777,0,0,0.01777777777777777,85.8844444444444,0)" xlink:href="#ah"/></g><path fill="#333" d="M694-661c-2 64-88 115-111 165 1 17 42 36 59 47 42 29 76 115 53 188-30 95-82 137-179 194C386 10 245 0 121-52 96-78 5-94 12-147c-3-30 39-60 66-58 10-5 95 37 147 52 50 14 141 11 184-13 64-35 159-87 167-152 7-58-74-71-141-61-44 7-88 21-136 26-61 7-96-80-43-117 65-45 147-89 217-133 33-21 50-38 50-49 0-57-104-57-169-46-78 14-147 44-200 90-12 10-25 23-51 23-35 0-77-40-55-77 74-122 237-149 435-148 101 1 214 52 211 149" id="aw"/><g id="p"><use transform="matrix(0.01777777777777777,0,0,0.01777777777777777,0,0)" xlink:href="#Z"/><use transform="matrix(0.01777777777777777,0,0,0.01777777777777777,10.737777777777774,0)" xlink:href="#aw"/><use transform="matrix(0.01777777777777777,0,0,0.01777777777777777,21.63555555555555,0)" xlink:href="#R"/><use transform="matrix(0.01777777777777777,0,0,0.01777777777777777,24.10666666666666,0)" xlink:href="#av"/><use transform="matrix(0.01777777777777777,0,0,0.01777777777777777,36.604444444444425,0)" xlink:href="#ah"/></g><path fill="#333" d="M521-275c40-33 108-24 108 34 0 49-75 103-210 183-80 47-247 72-323 10-66-54-95-101-82-218 12-106 41-136 91-224 55-96 145-209 240-278 32-23 68-33 107-33 86 2 108 61 107 158 0 55-15 82-44 82-55 1-25-116-79-110-132 15-229 223-291 334-48 86-31 226 81 218 122-9 217-92 295-156" id="ax"/><path fill="#333" d="M382-556c-3 158-18 304-18 470 0 31 6 72-21 86-20 35-87 21-104-6-1-188 14-367 23-549 1-24 13-80-17-80-77 0-131 31-210 31-15-10-43-18-33-45 0-82 83-94 148-109 103-23 215-12 315-40 43-12 91-17 142-23 62-8 95 53 77 116-8 28-47 14-75 18-68 9-134 10-195 30-32 11-31 60-32 101" id="ay"/><g id="q"><use transform="matrix(0.01777777777777777,0,0,0.01777777777777777,0,0)" xlink:href="#ax"/><use transform="matrix(0.01777777777777777,0,0,0.01777777777777777,11.271111111111107,0)" xlink:href="#ar"/><use transform="matrix(0.01777777777777777,0,0,0.01777777777777777,20.888888888888882,0)" xlink:href="#Y"/><use transform="matrix(0.01777777777777777,0,0,0.01777777777777777,31.32444444444443,0)" xlink:href="#X"/><use transform="matrix(0.01777777777777777,0,0,0.01777777777777777,42.311111111111096,0)" xlink:href="#ay"/><use transform="matrix(0.01777777777777777,0,0,0.01777777777777777,48.88888888888887,0)" xlink:href="#R"/><use transform="matrix(0.01777777777777777,0,0,0.01777777777777777,51.94666666666665,0)" xlink:href="#S"/><use transform="matrix(0.01777777777777777,0,0,0.01777777777777777,65.88444444444443,0)" xlink:href="#T"/></g><path fill="#333" d="M697 1c1 28-21 55-50 54-21 0-46-18-77-52-32-35-51-52-56-52C390 2 288 19 176-28 69-73 12-126 13-276c0-184 157-386 282-467 76-50 243-89 339-27 58 37 109 80 135 146 29 74 35 147 3 242-27 79-64 141-111 199-18 23-27 38-27 44 0 19 74 109 63 140zM448-200c12-68-47-222 52-222 51 0 64 41 70 89 9 80 60-19 72-41 20-37 29-84 29-134 1-93-48-165-140-161-161 7-233 84-316 209-53 79-80 143-80 192-1 114 135 154 246 114 40-14 63-27 67-46" id="az"/><g id="r"><use transform="matrix(0.03333333333333332,0,0,0.03333333333333332,0,0)" xlink:href="#au"/><use transform="matrix(0.03333333333333332,0,0,0.03333333333333332,18.799999999999994,0)" xlink:href="#W"/><use transform="matrix(0.03333333333333332,0,0,0.03333333333333332,45.56666666666665,0)" xlink:href="#T"/><use transform="matrix(0.03333333333333332,0,0,0.03333333333333332,66.59999999999997,0)" xlink:href="#al"/><use transform="matrix(0.03333333333333332,0,0,0.03333333333333332,90.56666666666663,0)" xlink:href="#aa"/><use transform="matrix(0.03333333333333332,0,0,0.03333333333333332,115.89999999999995,0)" xlink:href="#X"/><use transform="matrix(0.03333333333333332,0,0,0.03333333333333332,136.49999999999994,0)" xlink:href="#ac"/><use transform="matrix(0.03333333333333332,0,0,0.03333333333333332,158.69999999999993,0)" xlink:href="#T"/><use transform="matrix(0.03333333333333332,0,0,0.03333333333333332,179.73333333333326,0)" xlink:href="#az"/><use transform="matrix(0.03333333333333332,0,0,0.03333333333333332,206.66666666666657,0)" xlink:href="#ao"/></g><use transform="matrix(0.026666666666666665,0,0,0.026666666666666665,0,0)" xlink:href="#as" id="s"/><g id="t"><use transform="matrix(0.026666666666666665,0,0,0.026666666666666665,0,0)" xlink:href="#at"/><use transform="matrix(0.026666666666666665,0,0,0.026666666666666665,17.146666666666665,0)" xlink:href="#W"/><use transform="matrix(0.026666666666666665,0,0,0.026666666666666665,38.559999999999995,0)" xlink:href="#Y"/><use transform="matrix(0.026666666666666665,0,0,0.026666666666666665,54.213333333333324,0)" xlink:href="#X"/><use transform="matrix(0.026666666666666665,0,0,0.026666666666666665,70.69333333333333,0)" xlink:href="#Z"/><use transform="matrix(0.026666666666666665,0,0,0.026666666666666665,86.8,0)" xlink:href="#aa"/><use transform="matrix(0.026666666666666665,0,0,0.026666666666666665,107.06666666666666,0)" xlink:href="#Y"/><use transform="matrix(0.026666666666666665,0,0,0.026666666666666665,122.72,0)" xlink:href="#ab"/><use transform="matrix(0.026666666666666665,0,0,0.026666666666666665,140.64,0)" xlink:href="#ac"/><use transform="matrix(0.026666666666666665,0,0,0.026666666666666665,158.39999999999998,0)" xlink:href="#as"/><use transform="matrix(0.026666666666666665,0,0,0.026666666666666665,167.22666666666663,0)" xlink:href="#Z"/><use transform="matrix(0.026666666666666665,0,0,0.026666666666666665,183.3333333333333,0)" xlink:href="#at"/></g><use transform="matrix(0.019999999999999997,0,0,0.019999999999999997,0,0)" xlink:href="#as" id="v"/><path fill="#333" d="M489-785c107 0 154 111 116 214-29 79-213 255-300 345-26 27-38 39-16 63 95 2 204-5 287 7 22 4 49 51 49 77 0 63-95 31-141 31H320C244-52 124 2 73 14 50 19-1-26 3-53c6-51 111-140 150-182 94-98 182-189 275-285 55-57 80-102 80-129 1-31-28-24-56-21-120 11-265 81-296 145-13 26-15 67-56 65s-51-21-51-66c0-144 158-200 287-235 61-16 112-24 153-24" id="aA"/><path fill="#333" d="M760-689c54 66 114 194 89 305-22 96-60 182-130 233C644-96 571-43 466-22 362-1 196 2 130-53 83-92 15-170 14-243c-3-132 48-208 100-291 87-138 222-257 433-251 99 3 168 41 213 96zM147-248c0 125 211 119 317 79 118-45 205-117 253-230 30-71-7-171-46-201-79-58-137-52-237-20-103 33-177 98-233 203-36 66-54 122-54 169" id="aB"/><g id="w"><use transform="matrix(0.019999999999999997,0,0,0.019999999999999997,0,0)" xlink:href="#X"/><use transform="matrix(0.019999999999999997,0,0,0.019999999999999997,12.359999999999998,0)" xlink:href="#Y"/><use transform="matrix(0.019999999999999997,0,0,0.019999999999999997,24.099999999999998,0)" xlink:href="#ap"/><use transform="matrix(0.019999999999999997,0,0,0.019999999999999997,36.919999999999995,0)" xlink:href="#ae"/><use transform="matrix(0.019999999999999997,0,0,0.019999999999999997,51.03999999999999,0)" xlink:href="#am"/><use transform="matrix(0.019999999999999997,0,0,0.019999999999999997,63.73999999999999,0)" xlink:href="#ap"/><use transform="matrix(0.019999999999999997,0,0,0.019999999999999997,76.55999999999999,0)" xlink:href="#aa"/><use transform="matrix(0.019999999999999997,0,0,0.019999999999999997,91.75999999999999,0)" xlink:href="#ag"/><use transform="matrix(0.019999999999999997,0,0,0.019999999999999997,101.27999999999999,0)" xlink:href="#aA"/><use transform="matrix(0.019999999999999997,0,0,0.019999999999999997,114.09999999999998,0)" xlink:href="#aB"/><use transform="matrix(0.019999999999999997,0,0,0.019999999999999997,131.45999999999998,0)" xlink:href="#aB"/></g><use transform="matrix(0.019999999999999997,0,0,0.019999999999999997,0,0)" xlink:href="#as" id="y"/><path fill="#333" d="M24-128c0-158-18-313-5-472 6-74-11-192 62-191 78 1 88 68 113 130 59 143 102 191 174 297 50 73 81 109 92 109 8 0 12-3 13-9 24-163 3-322-12-477-6-63 62-76 101-37 65 64 45 212 54 340 10 141 7 304-15 413-8 15-20 23-37 23-76 0-203-132-244-200-33-54-79-109-116-169l4 4c-9-20-41-55-54-51-14 102-5 244 6 344 3 30-15 69-41 68-9 0-28-1-56-3-44-28-39-45-39-119" id="aC"/><path fill="#333" d="M722-498c18-70 6-160 6-241 0-38 16-57 49-57 55 0 82 64 82 193 1 204-63 347-126 491-54 125-124 110-196 9-30-42-54-91-82-146-27-53-43-79-49-79-8-17-88 136-114 182C269-106 193 9 170-1 96-15 86-47 66-129 33-267 17-480 18-657c0-70 18-105 54-105 39 0 66 36 68 87 4 137-4 277 12 406 12 100 67-12 84-47 47-96 102-197 139-285 18-41 78-38 96-4 52 97 51 251 110 344 50 78 71 31 104-70 17-53 22-108 37-167" id="aD"/><g id="z"><use transform="matrix(0.019999999999999997,0,0,0.019999999999999997,0,0)" xlink:href="#aC"/><use transform="matrix(0.019999999999999997,0,0,0.019999999999999997,12.819999999999999,0)" xlink:href="#ac"/><use transform="matrix(0.019999999999999997,0,0,0.019999999999999997,26.139999999999997,0)" xlink:href="#aD"/><use transform="matrix(0.019999999999999997,0,0,0.019999999999999997,43.49999999999999,0)" xlink:href="#T"/></g><g id="A"><use transform="matrix(0.019999999999999997,0,0,0.019999999999999997,0,0)" xlink:href="#ad"/><use transform="matrix(0.019999999999999997,0,0,0.019999999999999997,15.199999999999998,0)" xlink:href="#Y"/><use transform="matrix(0.019999999999999997,0,0,0.019999999999999997,26.939999999999994,0)" xlink:href="#ab"/><use transform="matrix(0.019999999999999997,0,0,0.019999999999999997,40.379999999999995,0)" xlink:href="#ac"/><use transform="matrix(0.019999999999999997,0,0,0.019999999999999997,53.69999999999999,0)" xlink:href="#ag"/><use transform="matrix(0.019999999999999997,0,0,0.019999999999999997,63.21999999999999,0)" xlink:href="#am"/><use transform="matrix(0.019999999999999997,0,0,0.019999999999999997,75.91999999999999,0)" xlink:href="#ap"/><use transform="matrix(0.019999999999999997,0,0,0.019999999999999997,88.73999999999998,0)" xlink:href="#an"/><use transform="matrix(0.019999999999999997,0,0,0.019999999999999997,99.79999999999998,0)" xlink:href="#W"/></g><path fill="#333" d="M109-735c-25-57-110-11-99 37 30 130 91 291 122 410 18 69 44 132 72 190 44 90 75 116 148 73 102-105 149-290 208-441 32-82 48-168 48-261 0-51-15-77-46-77-38 0-59 34-73 100-35 160-89 312-149 454-40 95-58 66-91-37-28-90-54-179-79-263-24-79-42-141-61-185" id="aE"/><g id="B"><use transform="matrix(0.022222222222222223,0,0,0.022222222222222223,0,0)" xlink:href="#X"/><use transform="matrix(0.022222222222222223,0,0,0.022222222222222223,13.733333333333334,0)" xlink:href="#Y"/><use transform="matrix(0.022222222222222223,0,0,0.022222222222222223,26.77777777777778,0)" xlink:href="#ap"/><use transform="matrix(0.022222222222222223,0,0,0.022222222222222223,41.022222222222226,0)" xlink:href="#ae"/><use transform="matrix(0.022222222222222223,0,0,0.022222222222222223,56.711111111111116,0)" xlink:href="#am"/><use transform="matrix(0.022222222222222223,0,0,0.022222222222222223,70.82222222222222,0)" xlink:href="#ap"/><use transform="matrix(0.022222222222222223,0,0,0.022222222222222223,85.06666666666666,0)" xlink:href="#aa"/><use transform="matrix(0.022222222222222223,0,0,0.022222222222222223,101.95555555555553,0)" xlink:href="#R"/><use transform="matrix(0.022222222222222223,0,0,0.022222222222222223,105.77777777777776,0)" xlink:href="#af"/><use transform="matrix(0.022222222222222223,0,0,0.022222222222222223,119.86666666666665,0)" xlink:href="#T"/><use transform="matrix(0.022222222222222223,0,0,0.022222222222222223,133.88888888888889,0)" xlink:href="#aE"/></g><g id="C"><use transform="matrix(0.022222222222222223,0,0,0.022222222222222223,0,0)" xlink:href="#aa"/><use transform="matrix(0.022222222222222223,0,0,0.022222222222222223,16.88888888888889,0)" xlink:href="#Y"/><use transform="matrix(0.022222222222222223,0,0,0.022222222222222223,29.933333333333334,0)" xlink:href="#ab"/><use transform="matrix(0.022222222222222223,0,0,0.022222222222222223,44.86666666666667,0)" xlink:href="#ac"/><use transform="matrix(0.022222222222222223,0,0,0.022222222222222223,59.66666666666667,0)" xlink:href="#ag"/><use transform="matrix(0.022222222222222223,0,0,0.022222222222222223,70.24444444444445,0)" xlink:href="#am"/><use transform="matrix(0.022222222222222223,0,0,0.022222222222222223,84.35555555555557,0)" xlink:href="#ap"/><use transform="matrix(0.022222222222222223,0,0,0.022222222222222223,98.60000000000001,0)" xlink:href="#an"/><use transform="matrix(0.022222222222222223,0,0,0.022222222222222223,110.8888888888889,0)" xlink:href="#W"/><use transform="matrix(0.022222222222222223,0,0,0.022222222222222223,128.73333333333335,0)" xlink:href="#R"/><use transform="matrix(0.022222222222222223,0,0,0.022222222222222223,132.55555555555557,0)" xlink:href="#af"/><use transform="matrix(0.022222222222222223,0,0,0.022222222222222223,146.64444444444445,0)" xlink:href="#T"/><use transform="matrix(0.022222222222222223,0,0,0.022222222222222223,160.66666666666666,0)" xlink:href="#aE"/></g><g id="D"><use transform="matrix(0.022222222222222223,0,0,0.022222222222222223,0,0)" xlink:href="#Q"/><use transform="matrix(0.022222222222222223,0,0,0.022222222222222223,12.533333333333333,0)" xlink:href="#Y"/><use transform="matrix(0.022222222222222223,0,0,0.022222222222222223,25.577777777777772,0)" xlink:href="#ap"/><use transform="matrix(0.022222222222222223,0,0,0.022222222222222223,39.82222222222222,0)" xlink:href="#Z"/><use transform="matrix(0.022222222222222223,0,0,0.022222222222222223,53.24444444444445,0)" xlink:href="#Y"/><use transform="matrix(0.022222222222222223,0,0,0.022222222222222223,66.28888888888889,0)" xlink:href="#T"/></g><g id="E"><use transform="matrix(0.022222222222222223,0,0,0.022222222222222223,0,0)" xlink:href="#T"/><use transform="matrix(0.022222222222222223,0,0,0.022222222222222223,14.022222222222222,0)" xlink:href="#az"/><use transform="matrix(0.022222222222222223,0,0,0.022222222222222223,31.977777777777778,0)" xlink:href="#ao"/><use transform="matrix(0.022222222222222223,0,0,0.022222222222222223,45.644444444444446,0)" xlink:href="#Y"/><use transform="matrix(0.022222222222222223,0,0,0.022222222222222223,58.68888888888889,0)" xlink:href="#ao"/><use transform="matrix(0.022222222222222223,0,0,0.022222222222222223,72.35555555555555,0)" xlink:href="#af"/><use transform="matrix(0.022222222222222223,0,0,0.022222222222222223,86.44444444444444,0)" xlink:href="#ar"/><use transform="matrix(0.022222222222222223,0,0,0.022222222222222223,98.46666666666667,0)" xlink:href="#ac"/><use transform="matrix(0.022222222222222223,0,0,0.022222222222222223,113.26666666666667,0)" xlink:href="#ab"/><use transform="matrix(0.022222222222222223,0,0,0.022222222222222223,128.2,0)" xlink:href="#U"/></g><g id="F"><use transform="matrix(0.022222222222222223,0,0,0.022222222222222223,0,0)" xlink:href="#T"/><use transform="matrix(0.022222222222222223,0,0,0.022222222222222223,14.022222222222222,0)" xlink:href="#al"/><use transform="matrix(0.022222222222222223,0,0,0.022222222222222223,30,0)" xlink:href="#Y"/><use transform="matrix(0.022222222222222223,0,0,0.022222222222222223,43.044444444444444,0)" xlink:href="#X"/><use transform="matrix(0.022222222222222223,0,0,0.022222222222222223,56.77777777777778,0)" xlink:href="#al"/></g><g id="G"><use transform="matrix(0.022222222222222223,0,0,0.022222222222222223,0,0)" xlink:href="#al"/><use transform="matrix(0.022222222222222223,0,0,0.022222222222222223,15.977777777777778,0)" xlink:href="#ac"/><use transform="matrix(0.022222222222222223,0,0,0.022222222222222223,30.77777777777778,0)" xlink:href="#ab"/><use transform="matrix(0.022222222222222223,0,0,0.022222222222222223,45.711111111111116,0)" xlink:href="#Q"/><use transform="matrix(0.022222222222222223,0,0,0.022222222222222223,58.24444444444444,0)" xlink:href="#ao"/><use transform="matrix(0.022222222222222223,0,0,0.022222222222222223,71.91111111111111,0)" xlink:href="#Y"/><use transform="matrix(0.022222222222222223,0,0,0.022222222222222223,84.95555555555555,0)" xlink:href="#al"/><use transform="matrix(0.022222222222222223,0,0,0.022222222222222223,100.93333333333332,0)" xlink:href="#ac"/><use transform="matrix(0.022222222222222223,0,0,0.022222222222222223,115.73333333333332,0)" xlink:href="#T"/></g><path fill="#333" d="M11-110C-14-66 45-13 76-8c17 2 29-20 35-34 46-87 86-151 130-233 80-148 195-281 286-421 44-66-51-145-100-70C284-548 148-351 11-110" id="aF"/><g id="H"><use transform="matrix(0.022222222222222223,0,0,0.022222222222222223,0,0)" xlink:href="#ah"/><use transform="matrix(0.022222222222222223,0,0,0.022222222222222223,14.022222222222222,0)" xlink:href="#al"/><use transform="matrix(0.022222222222222223,0,0,0.022222222222222223,30,0)" xlink:href="#Y"/><use transform="matrix(0.022222222222222223,0,0,0.022222222222222223,43.044444444444444,0)" xlink:href="#al"/><use transform="matrix(0.022222222222222223,0,0,0.022222222222222223,59.022222222222226,0)" xlink:href="#am"/><use transform="matrix(0.022222222222222223,0,0,0.022222222222222223,73.13333333333334,0)" xlink:href="#af"/><use transform="matrix(0.022222222222222223,0,0,0.022222222222222223,87.22222222222223,0)" xlink:href="#aF"/><use transform="matrix(0.022222222222222223,0,0,0.022222222222222223,99.13333333333334,0)" xlink:href="#S"/><use transform="matrix(0.022222222222222223,0,0,0.022222222222222223,116.55555555555559,0)" xlink:href="#T"/></g><path fill="#333" d="M608-642l-20 77c-36 56-69 94-113 138-49 48-58 40-29 81 33 46 69 89 97 147 44 89 52 141 40 147-3 38-20 49-63 52-68 5-97-106-129-160-40-68-56-162-144-164-53-1-27 78-45 121-7 56-12 123-28 170C157-4 113 24 66-1 46-11 40-39 49-87c19-111 19-139 19-313 0-144 1-187-40-242-27-37-13-94 26-108 103-36 250-59 389-41 63 8 182 85 165 149zm-140 11c-10-39-42-58-96-57-53 12-154 21-179 43-5 9-8 31-8 65 0 151 19 135 127 94 94-36 148-79 156-145" id="aG"/><path fill="#333" d="M312-705c33-33 39-107-26-103-49 3-81 54-111 81-75 69-115 191-144 308-21 84-23 101-14 176 9 78 64 163 125 214 24 20 92 29 89-18-4-43-67-95-83-129-51-107-29-195 12-325 28-89 89-143 152-204" id="aH"/><path fill="#333" d="M290-540c44-9 50-55 22-99-24-37-35-128-35-168 0-51-85-47-94-6-4 21-6 39-6 53-3 62 52 233 113 220zm-165 31c52 3 45-76 21-109-29-40-38-106-47-161-28-49-103-18-87 51 19 80 23 156 71 197 16 14 29 22 42 22" id="aI"/><path fill="#333" d="M281-285c31-114 79-277 15-384-30-51-68-104-118-134-26-16-69-9-66 27 4 51 46 70 66 106 47 87 58 158 22 285-23 82-35 147-91 197C43-130 8-88 8-59 8-15 61 0 89-24c71-61 131-123 171-221 9-21 13-29 21-43v3" id="aJ"/><g id="I"><use transform="matrix(0.022222222222222223,0,0,0.022222222222222223,0,0)" xlink:href="#aG"/><use transform="matrix(0.022222222222222223,0,0,0.022222222222222223,13.733333333333334,0)" xlink:href="#W"/><use transform="matrix(0.022222222222222223,0,0,0.022222222222222223,31.57777777777778,0)" xlink:href="#ak"/><use transform="matrix(0.022222222222222223,0,0,0.022222222222222223,47.2,0)" xlink:href="#al"/><use transform="matrix(0.022222222222222223,0,0,0.022222222222222223,63.17777777777778,0)" xlink:href="#ac"/><use transform="matrix(0.022222222222222223,0,0,0.022222222222222223,77.97777777777777,0)" xlink:href="#aH"/><use transform="matrix(0.022222222222222223,0,0,0.022222222222222223,86.44444444444444,0)" xlink:href="#aI"/><use transform="matrix(0.022222222222222223,0,0,0.022222222222222223,89.4,0)" xlink:href="#aF"/><use transform="matrix(0.022222222222222223,0,0,0.022222222222222223,102.60000000000001,0)" xlink:href="#aI"/><use transform="matrix(0.022222222222222223,0,0,0.022222222222222223,107.8888888888889,0)" xlink:href="#aJ"/></g><g id="J"><use transform="matrix(0.022222222222222223,0,0,0.022222222222222223,0,0)" xlink:href="#aG"/><use transform="matrix(0.022222222222222223,0,0,0.022222222222222223,13.733333333333334,0)" xlink:href="#W"/><use transform="matrix(0.022222222222222223,0,0,0.022222222222222223,31.57777777777778,0)" xlink:href="#ak"/><use transform="matrix(0.022222222222222223,0,0,0.022222222222222223,47.2,0)" xlink:href="#al"/><use transform="matrix(0.022222222222222223,0,0,0.022222222222222223,63.17777777777778,0)" xlink:href="#ac"/></g><g id="K"><use transform="matrix(0.022222222222222223,0,0,0.022222222222222223,0,0)" xlink:href="#aH"/><use transform="matrix(0.022222222222222223,0,0,0.022222222222222223,8.466666666666667,0)" xlink:href="#aI"/><use transform="matrix(0.022222222222222223,0,0,0.022222222222222223,11.422222222222222,0)" xlink:href="#aF"/><use transform="matrix(0.022222222222222223,0,0,0.022222222222222223,23.333333333333336,0)" xlink:href="#T"/><use transform="matrix(0.022222222222222223,0,0,0.022222222222222223,37.355555555555554,0)" xlink:href="#af"/><use transform="matrix(0.022222222222222223,0,0,0.022222222222222223,51.44444444444444,0)" xlink:href="#X"/><use transform="matrix(0.022222222222222223,0,0,0.022222222222222223,65.17777777777778,0)" xlink:href="#Y"/><use transform="matrix(0.022222222222222223,0,0,0.022222222222222223,78.22222222222223,0)" xlink:href="#Q"/><use transform="matrix(0.022222222222222223,0,0,0.022222222222222223,90.75555555555556,0)" xlink:href="#ac"/><use transform="matrix(0.022222222222222223,0,0,0.022222222222222223,105.55555555555556,0)" xlink:href="#aI"/><use transform="matrix(0.022222222222222223,0,0,0.022222222222222223,110.84444444444445,0)" xlink:href="#aJ"/></g><path fill="#333" d="M330-158c82-22 193-18 286-31 38 11 58 81 24 113-25 24-71 25-116 25-135 0-238 34-358 47C61 7 4-52 15-159c12-113 37-213 32-340-2-59 2-121-2-178-2-44 35-62 81-61 104-31 222-52 345-64 68-7 103 34 111 94 2 12-3 22-9 31-33 14-62 15-103 16-100 2-196 10-270 40h-8c-18 23-11 79-15 106-1 13 5 22 16 25 82-10 176-25 264-12 44 7 78 26 71 72-7 49-76 30-125 30-78 0-138 22-210 29-24 1-35 28-36 52-2 41-10 83-8 126-19 84 122 51 181 35" id="aK"/><g id="L"><use transform="matrix(0.022222222222222223,0,0,0.022222222222222223,0,0)" xlink:href="#aK"/><use transform="matrix(0.022222222222222223,0,0,0.022222222222222223,14.8,0)" xlink:href="#ap"/><use transform="matrix(0.022222222222222223,0,0,0.022222222222222223,29.044444444444444,0)" xlink:href="#Z"/></g><g id="M"><use transform="matrix(0.022222222222222223,0,0,0.022222222222222223,0,0)" xlink:href="#aH"/><use transform="matrix(0.022222222222222223,0,0,0.022222222222222223,7.533333333333333,0)" xlink:href="#an"/><use transform="matrix(0.022222222222222223,0,0,0.022222222222222223,19.822222222222223,0)" xlink:href="#ao"/><use transform="matrix(0.022222222222222223,0,0,0.022222222222222223,33.488888888888894,0)" xlink:href="#Y"/><use transform="matrix(0.022222222222222223,0,0,0.022222222222222223,46.53333333333334,0)" xlink:href="#T"/><use transform="matrix(0.022222222222222223,0,0,0.022222222222222223,60.55555555555556,0)" xlink:href="#ae"/><use transform="matrix(0.022222222222222223,0,0,0.022222222222222223,76.24444444444444,0)" xlink:href="#aJ"/></g><g id="N"><use transform="matrix(0.022222222222222223,0,0,0.022222222222222223,0,0)" xlink:href="#aH"/><use transform="matrix(0.022222222222222223,0,0,0.022222222222222223,8.466666666666667,0)" xlink:href="#aI"/><use transform="matrix(0.022222222222222223,0,0,0.022222222222222223,11.422222222222222,0)" xlink:href="#aF"/><use transform="matrix(0.022222222222222223,0,0,0.022222222222222223,24.400000000000002,0)" xlink:href="#au"/><use transform="matrix(0.022222222222222223,0,0,0.022222222222222223,36.93333333333333,0)" xlink:href="#X"/><use transform="matrix(0.022222222222222223,0,0,0.022222222222222223,50.66666666666667,0)" xlink:href="#ac"/><use transform="matrix(0.022222222222222223,0,0,0.022222222222222223,65.46666666666667,0)" xlink:href="#Z"/><use transform="matrix(0.022222222222222223,0,0,0.022222222222222223,78.88888888888889,0)" xlink:href="#am"/><use transform="matrix(0.022222222222222223,0,0,0.022222222222222223,93,0)" xlink:href="#af"/><use transform="matrix(0.022222222222222223,0,0,0.022222222222222223,107.08888888888889,0)" xlink:href="#al"/><use transform="matrix(0.022222222222222223,0,0,0.022222222222222223,123.06666666666668,0)" xlink:href="#am"/><use transform="matrix(0.022222222222222223,0,0,0.022222222222222223,137.17777777777778,0)" xlink:href="#W"/><use transform="matrix(0.022222222222222223,0,0,0.022222222222222223,155.0222222222222,0)" xlink:href="#ap"/><use transform="matrix(0.022222222222222223,0,0,0.022222222222222223,169.26666666666665,0)" xlink:href="#aI"/><use transform="matrix(0.022222222222222223,0,0,0.022222222222222223,174.55555555555551,0)" xlink:href="#aJ"/></g><g id="O"><use transform="matrix(0.022222222222222223,0,0,0.022222222222222223,0,0)" xlink:href="#T"/><use transform="matrix(0.022222222222222223,0,0,0.022222222222222223,14.022222222222222,0)" xlink:href="#ae"/><use transform="matrix(0.022222222222222223,0,0,0.022222222222222223,29.711111111111112,0)" xlink:href="#ao"/><use transform="matrix(0.022222222222222223,0,0,0.022222222222222223,43.37777777777778,0)" xlink:href="#ac"/><use transform="matrix(0.022222222222222223,0,0,0.022222222222222223,58.17777777777778,0)" xlink:href="#Y"/><use transform="matrix(0.022222222222222223,0,0,0.022222222222222223,71.22222222222223,0)" xlink:href="#X"/><use transform="matrix(0.022222222222222223,0,0,0.022222222222222223,84.95555555555556,0)" xlink:href="#ap"/></g></defs></g></svg>